<?xml version="1.0" encoding="UTF-8"?>
<svg width="234px" height="281px" viewBox="0 0 234 281" version="1.1" xmlns="http://www.w3.org/2000/svg" xmlns:xlink="http://www.w3.org/1999/xlink">
    <!-- Generator: Sketch 57.1 (83088) - https://sketch.com -->
    <title>bitmart</title>
    <desc>Created with Sketch.</desc>
    <g id="Page-1" stroke="none" stroke-width="1" fill="none" fill-rule="evenodd">
        <g id="bitmart" fill-rule="nonzero">
            <path d="M202,136.19 C213.848834,121.201437 220.280575,102.646307 220.250109,83.54 C220.250109,36.54 182.17,-1.42108547e-14 135.19,-1.42108547e-14 L31.9,-1.42108547e-14 L31.9,10.63 L132.9,10.63 C174.42,10.63 208.08,42.78 208.08,84.3 C208.10533,100.441424 202.9141,116.158926 193.28,129.11 L202,136.19 Z" id="Path" fill="#55A49F"></path>
            <path d="M190.48,127.39 C201.783691,115.898419 208.10972,100.419227 208.090046,84.3 C208.090046,50.3273471 180.552653,22.7855222 146.58,22.78 L59.24,22.78 L59.24,33.42 L148.85,33.42 C162.147848,33.4120404 174.903774,38.6890112 184.309587,48.0891973 C193.7154,57.4893834 199.000002,70.2421501 199,83.54 C199.017247,98.3397458 192.477125,112.386727 181.14,121.9 L190.48,127.39 Z" id="Path" fill="#4A8C89"></path>
            <path d="M173.63,119.37 C188,113.09 199,99.41 199,83.54 C199,61.73 178.28,44.05 156.47,44.05 L80.5,44.05 L80.5,50.12 L155.69,50.12 C173.69,50.12 191.38,64.75 191.38,82.78 C191.38,97.39 179.8,109.78 165.81,113.93 L173.63,119.37 Z" id="Path" fill="#5AABA5"></path>
            <polygon id="Path" fill="#4A8C8A" points="1.52 270.37 18.23 270.37 18.23 281 1.52 281"></polygon>
            <polygon id="Path" fill="#5AABA6" points="18.23 249.1 85.06 249.1 85.06 256.69 18.23 256.69"></polygon>
            <polygon id="Path" fill="#4B8F8E" points="18.23 202.02 89.62 202.02 89.62 208.1 18.23 208.1"></polygon>
            <polygon id="Path" fill="#7CC6C7" points="103.29 202.02 148.86 202.02 148.86 208.1 103.29 208.1"></polygon>
            <polygon id="Path" fill="#5AB5B4" points="31.9 180.75 56.2 180.75 56.2 186.83 31.9 186.83"></polygon>
            <polygon id="Path" fill="#428989" points="69.87 180.75 148.85 180.75 148.85 186.83 69.87 186.83"></polygon>
            <polygon id="Path" fill="#549391" points="95.69 85.06 147.33 85.06 147.33 91.14 95.69 91.14"></polygon>
            <polygon id="Path" fill="#306563" points="34.94 44.05 63.8 44.05 63.8 50.13 34.94 50.13"></polygon>
            <polygon id="Path" fill="#64B9B9" points="42.53 66.83 148.85 66.83 148.85 72.91 42.53 72.91"></polygon>
            <polygon id="Path" fill="#7FD6D5" points="15.19 85.06 80.5 85.06 80.5 91.14 15.19 91.14"></polygon>
            <path d="M33.42,268.85 L33.42,279.48 L148.85,279.48 C195.85,279.48 233.91,242.92 233.91,195.94 C233.91,148.962659 195.827341,110.88 148.85,110.88 L74.43,110.88 L74.43,120 L146.58,120 C188.102385,120.005522 221.76,153.667615 221.76,195.19 C221.76,236.72 188.1,268.86 146.58,268.86 L33.42,268.85 Z" id="Path" fill="#55A49F"></path>
            <path d="M51.64,133.66 L51.64,144.3 L162.52,144.3 C175.814383,144.297347 188.56517,149.576661 197.966657,158.976272 C207.368143,168.375883 212.65,181.125617 212.65,194.42 C212.65,222.106035 190.206035,244.55 162.52,244.55 L97.21,244.55 L97.21,256.7 L160.21,256.7 C176.525199,256.7 192.172024,250.218128 203.707674,238.680603 C215.243324,227.143077 221.722652,211.495199 221.720001,195.18 C221.720001,161.207347 194.182653,133.665522 160.21,133.66 L51.64,133.66 Z" id="Path" fill="#4A8C89"></path>
            <path d="M83.54,156.45 L83.54,162.52 L169.36,162.52 C187.36,162.52 205.05,177.15 205.05,195.18 C205.05,213.18 187.4,227.84 169.36,227.84 L0,227.84 L0,235.43 L170.12,235.43 C191.93,235.43 212.65,217.75 212.65,195.94 C212.65,174.13 191.93,156.45 170.12,156.45 L83.54,156.45 Z" id="Path" fill="#5AABA5"></path>
        </g>
    </g>
</svg>