<?xml version="1.0" encoding="UTF-8"?>
<svg width="254px" height="254px" viewBox="0 0 254 254" version="1.1" xmlns="http://www.w3.org/2000/svg" xmlns:xlink="http://www.w3.org/1999/xlink">
    <!-- Generator: Sketch 57.1 (83088) - https://sketch.com -->
    <title>Binance_logo</title>
    <desc>Created with Sketch.</desc>
    <g id="Page-1" stroke="none" stroke-width="1" fill="none" fill-rule="evenodd">
        <g id="Binance_logo" fill="#F3BA2F" fill-rule="nonzero">
            <polygon id="Path" points="78.342 106.406 127.518 57.232 176.72 106.432 205.334 77.818 127.518 0 49.728 77.792"></polygon>
            <polygon id="Rectangle" transform="translate(29.520768, 126.607230) rotate(45.000000) translate(-29.520768, -126.607230) " points="9.28796214 106.373424 49.7535741 106.373424 49.7535741 146.841036 9.28796214 146.841036"></polygon>
            <polygon id="Path" points="78.342 146.816 127.518 195.99 176.718 146.792 205.348 175.39 205.334 175.406 127.518 253.222 49.726 175.432 49.686 175.392"></polygon>
            <polygon id="Rectangle" transform="translate(225.518012, 126.620711) rotate(135.000000) translate(-225.518012, -126.620711) " points="205.284207 106.387905 245.751818 106.387905 245.751818 146.853517 205.284207 146.853517"></polygon>
            <polygon id="Path" points="156.542 126.596 156.554 126.596 127.518 97.56 106.06 119.018 106.058 119.018 103.594 121.484 98.508 126.57 98.508 126.57 98.468 126.61 98.508 126.652 127.518 155.662 156.554 126.626 156.568 126.61"></polygon>
        </g>
    </g>
</svg>