<?xml version="1.0" encoding="UTF-8"?>
<svg width="292px" height="292px" viewBox="0 0 292 292" version="1.1" xmlns="http://www.w3.org/2000/svg" xmlns:xlink="http://www.w3.org/1999/xlink">
    <!-- Generator: Sketch 57.1 (83088) - https://sketch.com -->
    <title>Oval</title>
    <desc>Created with Sketch.</desc>
    <g id="Page-1" stroke="none" stroke-width="1" fill="none" fill-rule="evenodd">
        <g id="Coinbase-New" transform="translate(-406.000000, 0.000000)" fill-rule="nonzero">
            <g id="Group" transform="translate(406.000000, 0.000000)">
                <circle id="Oval" fill="#3259A5" cx="145.7" cy="146" r="145.66"></circle>
                <path d="M195.94,155.5 C191.49,179.08 170.8,196.91 145.93,196.91 C117.81,196.91 95.02,174.12 95.02,146 C95.02,117.88 117.81,95.09 145.93,95.09 C170.8,95.09 191.49,112.93 195.94,136.5 L247.31,136.5 C242.52,84.72 198.96,44.18 145.93,44.18 C89.69,44.18 44.11,89.77 44.11,146 C44.11,202.24 89.7,247.82 145.93,247.82 C198.96,247.82 242.52,207.28 247.31,155.5 L195.94,155.5 Z" id="Path" fill="#FFFFFF"></path>
            </g>
        </g>
    </g>
</svg>